<?xml version="1.0" encoding="UTF-8"?>
<svg xmlns="http://www.w3.org/2000/svg" viewBox="0 0 600 599" preserveAspectRatio="xMidYMid meet">
<g id="logo-text" transform="translate(0,599) scale(0.1,-0.1)" fill="#000000" stroke="none">
<path d="M220 2965 l0 -2845 2845 0 2845 0 0 2845 0 2845 -2845 0 -2845 0 0 -2845z m5670 -5 l0 -2830 -2830 0 -2830 0 0 2830 0 2830 2830 0 2830 0 0 -2830z"/>
<path id="logo-four" d="M3096 4264 c-29 -30 -35 -77 -12 -110 13 -18 12 -21 -13 -32 -39 -17 -51 -51 -51 -142 0 -69 3 -81 20 -90 11 -6 24 -9 28 -7 4 3 8 -23 9 -57 1 -33 5 -80 8 -103 6 -39 8 -42 26 -30 18 11 19 19 13 87 -9 106 -11 113 -34 132 -17 13 -20 28 -20 85 0 40 5 74 12 81 7 7 40 12 78 12 38 0 71 -5 78 -12 7 -7 12 -41 12 -83 0 -67 -2 -73 -25 -83 -20 -9 -25 -19 -25 -49 0 -21 -3 -55 -6 -75 -7 -40 0 -46 28 -24 11 8 18 29 19 60 2 39 7 50 26 59 22 10 23 16 23 104 0 85 -2 96 -23 117 -13 13 -29 25 -37 28 -11 3 -11 9 3 28 24 34 21 64 -9 99 -35 41 -89 43 -128 5z m88 -27 c12 -9 17 -23 14 -42 -2 -25 -8 -30 -35 -33 -43 -4 -62 28 -38 64 17 27 33 30 59 11z m31 -121 c20 -18 20 -18 -4 -6 -13 6 -40 10 -60 8 -24 -2 -38 1 -38 8 0 19 79 11 102 -10z m-135 -10 c0 -2 -8 -10 -17 -17 -16 -13 -17 -12 -4 4 13 16 21 21 21 13z"/>
<path id="logo-arrow" d="M3553 3966 c-89 -6 -167 -16 -173 -22 -7 -7 -1 -23 21 -53 17 -24 29 -44 27 -46 -2 -1 -241 -157 -533 -345 -291 -188 -532 -344 -534 -346 -3 -3 2 -11 11 -20 14 -14 40 1 267 148 139 90 386 249 549 355 163 105 298 198 300 205 1 8 -9 25 -23 38 -14 13 -25 27 -25 32 0 4 37 8 83 9 105 1 173 11 170 27 -2 6 4 9 12 6 12 -5 12 -9 -4 -23 -26 -22 -94 -230 -81 -247 7 -8 6 -13 -4 -17 -9 -4 -18 -2 -21 3 -3 4 -1 10 5 12 12 4 -36 78 -50 78 -5 0 -74 -59 -152 -130 -129 -117 -147 -130 -178 -129 -19 0 -41 1 -47 0 -16 -1 -19 -181 -3 -181 6 0 10 -10 10 -22 0 -12 -3 -18 -7 -14 -5 4 -8 13 -8 19 0 8 -30 13 -92 15 l-93 3 0 -34 c0 -36 -6 -43 -267 -278 -76 -68 -81 -75 -66 -91 14 -16 26 -8 172 127 l156 143 5 -131 5 -132 88 -3 c48 -1 87 -7 87 -12 0 -6 79 -10 200 -10 127 0 200 4 200 10 0 6 37 10 90 10 l90 0 0 200 0 200 -22 1 c-13 0 -53 0 -90 -1 l-68 -1 0 90 c0 66 -3 91 -12 92 -7 0 -62 0 -123 -1 l-109 -1 49 43 c28 24 79 69 114 102 l63 59 37 -42 c21 -24 40 -38 47 -34 6 5 35 81 66 170 40 115 52 165 45 172 -6 6 -13 10 -16 10 -4 -1 -79 -7 -168 -13z m-122 -39 c-6 -8 -7 -18 -3 -22 4 -5 1 -5 -6 -1 -10 6 -10 11 -1 22 6 8 14 14 16 14 3 0 0 -6 -6 -13z m119 -201 c0 -2 -7 -7 -16 -10 -8 -3 -12 -2 -9 4 6 10 25 14 25 6z m-235 -230 c12 -12 11 -14 -10 -12 -25 1 -31 7 -18 19 9 10 13 9 28 -7z m205 -296 l0 -260 -35 0 -34 0 -3 78 -3 77 -85 0 -85 0 -3 -77 -3 -78 -34 0 -35 0 0 260 0 260 160 0 160 0 0 -260z m31 87 c-10 -9 -11 -8 -5 6 3 10 9 15 12 12 3 -3 0 -11 -7 -18z m-391 -167 l0 -160 -70 0 -70 0 0 160 0 160 70 0 70 0 0 -160z m540 0 l0 -160 -70 0 -70 0 0 160 0 160 70 0 70 0 0 -160z"/>
</g>
</svg>
